<?xml version="1.0" encoding="UTF-8"?><svg id="Layer_2" xmlns="http://www.w3.org/2000/svg" viewBox="0 0 457.19 307.6"><g id="Layer_3"><path d="M457.19,152.71c0,24.5-8.8,49.01-22.7,69.61-12.81,18.98-32.98,34.13-54.81,47.76-19.49,12.17-41.69,22.77-66.34,29.21-22.48,5.87-46.87,8.31-72.12,8.31s-48.94-5.16-71.41-11.02c-24.66-6.44-45.72-17.28-65.21-29.45-21.83-13.63-44.15-25.62-56.96-44.6-13.91-20.6-20.72-45.31-20.72-69.81s11.07-46.35,24.97-66.94c12.81-18.98,27.48-39.28,49.31-52.92,19.49-12.17,43.81-18.13,68.46-24.56C192.13,2.42,215.96,0,241.21,0s48.75,3.71,71.22,9.58c24.66,6.44,46.41,15.75,65.9,27.92,21.83,13.63,38.75,29.73,51.56,48.71,13.91,20.6,27.3,42.01,27.3,66.5Z" fill="#ff577b"/><path d="M59.52,194.62c-28.79,38.08-28.61,38.21-57.4,76.29-5.85,7.74,1.23,19.84,10.8,18.25,33.43-5.57,33.76-3.59,67.19-9.16s33.1-7.57,66.53-13.14c9.45-1.58,10.38-12.32,2.56-17.86-38.08-26.93-36.24-29.52-74.32-56.45-4.73-3.34-11.87-2.55-15.36,2.07Z" fill="#ff577b"/><path d="M136.43,139.89c.13,2.14-.01,4.29-.42,6.45-.41,2.17-1.17,4.17-2.3,6.01-1.13,1.84-2.63,3.49-4.52,4.97-1.89,1.47-4.21,2.62-6.96,3.44l.04.74c2.49.26,4.87.82,7.14,1.67,2.27.85,4.28,2.09,6.03,3.71,1.74,1.63,3.16,3.64,4.25,6.05,1.09,2.41,1.74,5.29,1.94,8.65.27,4.43-.45,8.33-2.14,11.68-1.69,3.36-4.06,6.15-7.09,8.39-3.04,2.24-6.54,3.98-10.5,5.2-3.96,1.23-8.08,1.97-12.34,2.22l-5.36.32c-2.17.13-4.52.21-7.03.24-2.51.03-5.07,0-7.67-.09-2.6-.09-4.98-.32-7.15-.68l-5.1-84.94c1.54-.34,3.31-.69,5.31-1.06,2-.37,4.14-.7,6.43-1,2.29-.3,4.64-.57,7.06-.8,2.42-.23,4.81-.41,7.19-.56,4.02-.24,7.96-.17,11.81.22,3.85.39,7.32,1.27,10.41,2.65,3.09,1.38,5.62,3.41,7.59,6.09,1.97,2.68,3.09,6.16,3.34,10.42ZM100.94,158.21c1.17-.07,2.53-.19,4.07-.37,1.54-.17,2.81-.37,3.81-.6,3.12-1.16,5.78-2.79,7.96-4.88,2.18-2.09,3.18-4.71,2.99-7.88-.13-2.11-.65-3.83-1.57-5.16-.92-1.33-2.1-2.36-3.53-3.09-1.43-.73-3.03-1.2-4.81-1.42-1.78-.22-3.63-.27-5.55-.16-2.18.13-4.18.29-6.02.48-1.84.19-3.25.4-4.25.62l1.37,22.78,5.52-.33ZM108.6,194.93c2.05-.12,4.03-.49,5.93-1.09,1.9-.6,3.56-1.46,4.97-2.56,1.42-1.1,2.53-2.46,3.34-4.05.81-1.6,1.15-3.45,1.02-5.56-.16-2.68-.82-4.76-1.98-6.24-1.16-1.48-2.63-2.59-4.4-3.34-1.78-.75-3.74-1.18-5.89-1.3-2.15-.11-4.29-.11-6.42.02l-8.99.54,1.41,23.52c.42.14,1.08.22,1.99.25.91.03,1.87.03,2.9,0,1.03-.02,2.1-.04,3.21-.07,1.11-.03,2.07-.06,2.9-.11Z" fill="#fff"/><path d="M156.28,147.47c3.19-1.67,6.91-3.17,11.16-4.5,4.24-1.32,9.32-2.17,15.23-2.52,4.27-.26,7.93.04,10.99.88,3.06.85,5.57,2.16,7.53,3.93,1.96,1.78,3.43,3.95,4.41,6.53.98,2.58,1.57,5.51,1.76,8.79.25,4.19.32,7.76.21,10.74-.11,2.97-.1,5.61.04,7.9.1,1.72.3,3.65.59,5.77.23,1.14.42,2.24.57,3.3l8-.48.81,13.54-20.66,1.24-2.12-8.27-.61.04c-1.48,2.64-3.67,4.98-6.58,7-2.91,2.03-6.93,3.2-12.07,3.5-6.12.37-11.07-.98-14.86-4.05-3.79-3.07-5.84-7.31-6.17-12.73-.21-3.45.25-6.46,1.36-9.04,1.11-2.58,2.83-4.74,5.14-6.49,2.31-1.74,5.13-3.11,8.47-4.09,3.34-.98,7.09-1.6,11.24-1.85,1.47-.09,3.02-.1,4.66-.03,1.64.07,3.65.11,6.02.13.11-.83.15-1.66.1-2.48l-.14-2.34c-.19-3.12-1.22-5.3-3.09-6.55-1.87-1.25-4.56-1.76-8.07-1.55-4.16.25-7.87,1.01-11.15,2.28-3.28,1.27-6.02,2.5-8.24,3.71l-4.54-12.33ZM179.94,191.39c3.89-.23,6.77-1.13,8.63-2.68,1.86-1.55,3.19-3.18,3.98-4.87l-.44-7.39c-.82-.11-2.05-.23-3.69-.33-1.64-.11-3.39-.11-5.25,0-1.54.09-3.07.33-4.6.71-1.53.38-2.88.91-4.06,1.6-1.18.69-2.11,1.55-2.78,2.58s-.96,2.24-.88,3.64c.14,2.3.91,4.04,2.33,5.23,1.42,1.19,3.66,1.69,6.75,1.51Z" fill="#fff"/><path d="M226.49,187.24l15.26-.92-2.07-34.47-15.26.92-.81-13.54,27.7-1.66,2.33,8.01.49-.03c2.13-2.85,4.63-5.26,7.47-7.24,2.85-1.98,6.24-3.09,10.18-3.33,4.92-.3,8.91,1.28,11.96,4.72,3.05,3.44,4.83,9.39,5.33,17.84l-14.4.86c-.18-2.95-.74-5.08-1.68-6.39s-2.36-1.9-4.25-1.78c-3.28.2-5.88,1.18-7.79,2.94-1.91,1.76-3.5,3.75-4.77,5.97l1.57,26.22,26.71-1.6.81,13.54-57.98,3.48-.81-13.54Z" fill="#fff"/><path d="M291.19,110.46l26.1-1.57,2.95,49.12,3.69-.22,18.72-25.71,18.84-1.13-23.18,29.56,17.32,18.97,11.45-.69.81,13.54-19.94,1.2-22.7-24.21-4.31.26,1.53,25.48-16,.96-4.36-72.63-10.09.61-.81-13.54Z" fill="#fff"/><path d="M396.7,182.46c-.17-2.87.59-5.2,2.3-7,1.7-1.79,4.03-2.77,6.99-2.95,3.12-.19,5.63.51,7.54,2.08,1.9,1.57,2.95,3.8,3.12,6.67s-.59,5.22-2.29,7.06c-1.7,1.83-4.11,2.84-7.23,3.03-2.95.18-5.39-.54-7.3-2.16-1.91-1.62-2.95-3.86-3.12-6.73ZM393.74,104.3l16.5-.99,2.43,40.5-2,20.26-10.09.61-4.41-19.87-2.43-40.5Z" fill="#fff"/></g></svg>